<svg xmlns="http://www.w3.org/2000/svg" viewBox="0 0 64 64" width="100%" height="100%">
  <polygon points="10,22 26,16 26,52 10,58" fill="#a0c4ff"/>
  
  <polygon points="26,16 42,22 42,58 26,52" fill="#bde0fe"/>
  
  <polygon points="42,22 58,16 58,52 42,58" fill="#a0c4ff"/>
  
  <polyline points="18,36 26,30 36,40 42,32 50,38" fill="none" stroke="#2b2d42" stroke-width="2" stroke-linejoin="round"/>

  <ellipse cx="36" cy="40" rx="6" ry="2" fill="rgba(0,0,0,0.2)"/>

  <path d="M36,12 C30.477,12 26,16.477 26,22 C26,29.5 36,40 36,40 C36,40 46,29.5 46,22 C46,16.477 41.523,12 36,12 Z" fill="#ef233c"/>
  
  <circle cx="36" cy="22" r="4" fill="#ffffff"/>
</svg>
